solid OpenSCAD_Model
  facet normal 0 -1 0
    outer loop
      vertex -25 -69.73 0.8
      vertex -25 -69.73 -0.8
      vertex 25 -69.73 0.8
    endloop
  endfacet
  facet normal 0 -1 0
    outer loop
      vertex -25 -69.73 -0.8
      vertex 25 -69.73 -0.8
      vertex 25 -69.73 0.8
    endloop
  endfacet
  facet normal 0 0 -1
    outer loop
      vertex -25 -69.73 -0.8
      vertex -25 69.73 -0.8
      vertex 25 -69.73 -0.8
    endloop
  endfacet
  facet normal 0 0 -1
    outer loop
      vertex -25 69.73 -0.8
      vertex 25 69.73 -0.8
      vertex 25 -69.73 -0.8
    endloop
  endfacet
  facet normal 0 1 0
    outer loop
      vertex -25 69.73 -0.8
      vertex -25 69.73 0.8
      vertex 25 69.73 -0.8
    endloop
  endfacet
  facet normal -0 1 0
    outer loop
      vertex -25 69.73 0.8
      vertex 25 69.73 0.8
      vertex 25 69.73 -0.8
    endloop
  endfacet
  facet normal -0 0 1
    outer loop
      vertex -25 69.73 0.8
      vertex -25 -69.73 0.8
      vertex 25 69.73 0.8
    endloop
  endfacet
  facet normal 0 0 1
    outer loop
      vertex -25 -69.73 0.8
      vertex 25 -69.73 0.8
      vertex 25 69.73 0.8
    endloop
  endfacet
  facet normal 1 0 0
    outer loop
      vertex 25 -69.73 -0.8
      vertex 25 69.73 -0.8
      vertex 25 69.73 0.8
    endloop
  endfacet
  facet normal 1 0 0
    outer loop
      vertex 25 69.73 0.8
      vertex 25 -69.73 0.8
      vertex 25 -69.73 -0.8
    endloop
  endfacet
  facet normal -1 0 0
    outer loop
      vertex -25 69.73 -0.8
      vertex -25 -69.73 -0.8
      vertex -25 -69.73 0.8
    endloop
  endfacet
  facet normal -1 0 0
    outer loop
      vertex -25 -69.73 0.8
      vertex -25 69.73 0.8
      vertex -25 69.73 -0.8
    endloop
  endfacet
endsolid OpenSCAD_Model
