solid OpenSCAD_Model
  facet normal 0 -1 0
    outer loop
      vertex -2.25001 1.77557 -23.075
      vertex 2.25001 1.77557 23.075
      vertex -2.25001 1.77557 23.075
    endloop
  endfacet
  facet normal 0 -1 -0
    outer loop
      vertex 2.25001 1.77557 23.075
      vertex -2.25001 1.77557 -23.075
      vertex 2.25001 1.77557 -23.075
    endloop
  endfacet
  facet normal 1 -1.30699e-06 0
    outer loop
      vertex -3.15 -6.77557 23.075
      vertex -3.14999 0.875578 -23.075
      vertex -3.14999 0.875578 23.075
    endloop
  endfacet
  facet normal 1 -1.30699e-06 0
    outer loop
      vertex -3.14999 0.875578 -23.075
      vertex -3.15 -6.77557 23.075
      vertex -3.15 -6.77557 -23.075
    endloop
  endfacet
  facet normal 0.707111 -0.707102 0
    outer loop
      vertex -3.14999 0.875578 23.075
      vertex -2.25001 1.77557 -23.075
      vertex -2.25001 1.77557 23.075
    endloop
  endfacet
  facet normal 0.707111 -0.707102 0
    outer loop
      vertex -2.25001 1.77557 -23.075
      vertex -3.14999 0.875578 23.075
      vertex -3.14999 0.875578 -23.075
    endloop
  endfacet
  facet normal -1 -1.30699e-06 0
    outer loop
      vertex 3.15 -6.77557 -23.075
      vertex 3.14999 0.875578 23.075
      vertex 3.14999 0.875578 -23.075
    endloop
  endfacet
  facet normal -1 -1.30699e-06 0
    outer loop
      vertex 3.14999 0.875578 23.075
      vertex 3.15 -6.77557 -23.075
      vertex 3.15 -6.77557 23.075
    endloop
  endfacet
  facet normal -0.707111 -0.707102 0
    outer loop
      vertex 3.14999 0.875578 -23.075
      vertex 2.25001 1.77557 23.075
      vertex 2.25001 1.77557 -23.075
    endloop
  endfacet
  facet normal -0.707111 -0.707102 0
    outer loop
      vertex 2.25001 1.77557 23.075
      vertex 3.14999 0.875578 -23.075
      vertex 3.14999 0.875578 23.075
    endloop
  endfacet
  facet normal 0.707111 0.707103 0
    outer loop
      vertex -1.60001 3.77558 23.075
      vertex -2.49999 4.67557 -23.075
      vertex -2.49999 4.67557 23.075
    endloop
  endfacet
  facet normal 0.707111 0.707103 0
    outer loop
      vertex -2.49999 4.67557 -23.075
      vertex -1.60001 3.77558 23.075
      vertex -1.60001 3.77558 -23.075
    endloop
  endfacet
  facet normal 1 4.7619e-06 0
    outer loop
      vertex -2.49999 4.67557 23.075
      vertex -2.5 6.77557 -23.075
      vertex -2.5 6.77557 23.075
    endloop
  endfacet
  facet normal 1 4.7619e-06 0
    outer loop
      vertex -2.5 6.77557 -23.075
      vertex -2.49999 4.67557 23.075
      vertex -2.49999 4.67557 -23.075
    endloop
  endfacet
  facet normal -0.707111 0.707103 0
    outer loop
      vertex 1.60001 3.77558 -23.075
      vertex 2.49999 4.67557 23.075
      vertex 2.49999 4.67557 -23.075
    endloop
  endfacet
  facet normal -0.707111 0.707103 0
    outer loop
      vertex 2.49999 4.67557 23.075
      vertex 1.60001 3.77558 -23.075
      vertex 1.60001 3.77558 23.075
    endloop
  endfacet
  facet normal 0 1 -0
    outer loop
      vertex 1.60001 3.77558 -23.075
      vertex -1.60001 3.77558 23.075
      vertex 1.60001 3.77558 23.075
    endloop
  endfacet
  facet normal 0 1 0
    outer loop
      vertex -1.60001 3.77558 23.075
      vertex 1.60001 3.77558 -23.075
      vertex -1.60001 3.77558 -23.075
    endloop
  endfacet
  facet normal -1 4.7619e-06 0
    outer loop
      vertex 2.49999 4.67557 -23.075
      vertex 2.5 6.77557 23.075
      vertex 2.5 6.77557 -23.075
    endloop
  endfacet
  facet normal -1 4.7619e-06 0
    outer loop
      vertex 2.5 6.77557 23.075
      vertex 2.49999 4.67557 -23.075
      vertex 2.49999 4.67557 23.075
    endloop
  endfacet
  facet normal -0.707111 -0.707103 0
    outer loop
      vertex -5.40001 -6.77557 -23.075
      vertex -6.29999 -5.87558 23.075
      vertex -6.29999 -5.87558 -23.075
    endloop
  endfacet
  facet normal -0.707111 -0.707103 0
    outer loop
      vertex -6.29999 -5.87558 23.075
      vertex -5.40001 -6.77557 -23.075
      vertex -5.40001 -6.77557 23.075
    endloop
  endfacet
  facet normal 0.707111 -0.707103 0
    outer loop
      vertex 5.40001 -6.77557 23.075
      vertex 6.29999 -5.87558 -23.075
      vertex 6.29999 -5.87558 23.075
    endloop
  endfacet
  facet normal 0.707111 -0.707103 0
    outer loop
      vertex 6.29999 -5.87558 -23.075
      vertex 5.40001 -6.77557 23.075
      vertex 5.40001 -6.77557 -23.075
    endloop
  endfacet
  facet normal 0.707111 0.707103 0
    outer loop
      vertex 6.29999 5.87558 23.075
      vertex 5.40001 6.77557 -23.075
      vertex 5.40001 6.77557 23.075
    endloop
  endfacet
  facet normal 0.707111 0.707103 0
    outer loop
      vertex 5.40001 6.77557 -23.075
      vertex 6.29999 5.87558 23.075
      vertex 6.29999 5.87558 -23.075
    endloop
  endfacet
  facet normal 0 -1 0
    outer loop
      vertex -5.40001 -6.77557 -23.075
      vertex -3.15 -6.77557 23.075
      vertex -5.40001 -6.77557 23.075
    endloop
  endfacet
  facet normal 0 -1 -0
    outer loop
      vertex -3.15 -6.77557 23.075
      vertex -5.40001 -6.77557 -23.075
      vertex -3.15 -6.77557 -23.075
    endloop
  endfacet
  facet normal 0 -1 0
    outer loop
      vertex 3.15 -6.77557 -23.075
      vertex 5.40001 -6.77557 23.075
      vertex 3.15 -6.77557 23.075
    endloop
  endfacet
  facet normal 0 -1 -0
    outer loop
      vertex 5.40001 -6.77557 23.075
      vertex 3.15 -6.77557 -23.075
      vertex 5.40001 -6.77557 -23.075
    endloop
  endfacet
  facet normal 1 -0 0
    outer loop
      vertex 6.29999 -5.87558 23.075
      vertex 6.29999 5.87558 -23.075
      vertex 6.29999 5.87558 23.075
    endloop
  endfacet
  facet normal 1 0 0
    outer loop
      vertex 6.29999 5.87558 -23.075
      vertex 6.29999 -5.87558 23.075
      vertex 6.29999 -5.87558 -23.075
    endloop
  endfacet
  facet normal -0.707111 0.707103 0
    outer loop
      vertex -6.29999 5.87558 -23.075
      vertex -5.40001 6.77557 23.075
      vertex -5.40001 6.77557 -23.075
    endloop
  endfacet
  facet normal -0.707111 0.707103 0
    outer loop
      vertex -5.40001 6.77557 23.075
      vertex -6.29999 5.87558 -23.075
      vertex -6.29999 5.87558 23.075
    endloop
  endfacet
  facet normal -1 0 0
    outer loop
      vertex -6.29999 -5.87558 -23.075
      vertex -6.29999 5.87558 23.075
      vertex -6.29999 5.87558 -23.075
    endloop
  endfacet
  facet normal -1 -0 0
    outer loop
      vertex -6.29999 5.87558 23.075
      vertex -6.29999 -5.87558 -23.075
      vertex -6.29999 -5.87558 23.075
    endloop
  endfacet
  facet normal 0 1 -0
    outer loop
      vertex -2.5 6.77557 -23.075
      vertex -5.40001 6.77557 23.075
      vertex -2.5 6.77557 23.075
    endloop
  endfacet
  facet normal 0 1 0
    outer loop
      vertex -5.40001 6.77557 23.075
      vertex -2.5 6.77557 -23.075
      vertex -5.40001 6.77557 -23.075
    endloop
  endfacet
  facet normal 0 1 -0
    outer loop
      vertex 5.40001 6.77557 -23.075
      vertex 2.5 6.77557 23.075
      vertex 5.40001 6.77557 23.075
    endloop
  endfacet
  facet normal 0 1 0
    outer loop
      vertex 2.5 6.77557 23.075
      vertex 5.40001 6.77557 -23.075
      vertex 2.5 6.77557 -23.075
    endloop
  endfacet
  facet normal 0 0 -1
    outer loop
      vertex 3.15 -6.77557 -23.075
      vertex 6.29999 -5.87558 -23.075
      vertex 5.40001 -6.77557 -23.075
    endloop
  endfacet
  facet normal 0 0 -1
    outer loop
      vertex 6.29999 -5.87558 -23.075
      vertex 3.14999 0.875578 -23.075
      vertex 6.29999 5.87558 -23.075
    endloop
  endfacet
  facet normal -0 0 -1
    outer loop
      vertex 6.29999 -5.87558 -23.075
      vertex 3.15 -6.77557 -23.075
      vertex 3.14999 0.875578 -23.075
    endloop
  endfacet
  facet normal 0 0 -1
    outer loop
      vertex 2.49999 4.67557 -23.075
      vertex 6.29999 5.87558 -23.075
      vertex 3.14999 0.875578 -23.075
    endloop
  endfacet
  facet normal -0 0 -1
    outer loop
      vertex 6.29999 5.87558 -23.075
      vertex 2.49999 4.67557 -23.075
      vertex 5.40001 6.77557 -23.075
    endloop
  endfacet
  facet normal -0 0 -1
    outer loop
      vertex 5.40001 6.77557 -23.075
      vertex 2.49999 4.67557 -23.075
      vertex 2.5 6.77557 -23.075
    endloop
  endfacet
  facet normal 0 0 -1
    outer loop
      vertex 2.25001 1.77557 -23.075
      vertex 2.49999 4.67557 -23.075
      vertex 3.14999 0.875578 -23.075
    endloop
  endfacet
  facet normal 0 0 -1
    outer loop
      vertex 2.25001 1.77557 -23.075
      vertex 1.60001 3.77558 -23.075
      vertex 2.49999 4.67557 -23.075
    endloop
  endfacet
  facet normal 0 0 -1
    outer loop
      vertex 2.25001 1.77557 -23.075
      vertex -1.60001 3.77558 -23.075
      vertex 1.60001 3.77558 -23.075
    endloop
  endfacet
  facet normal 0 0 -1
    outer loop
      vertex -2.25001 1.77557 -23.075
      vertex -1.60001 3.77558 -23.075
      vertex 2.25001 1.77557 -23.075
    endloop
  endfacet
  facet normal 0 0 -1
    outer loop
      vertex -2.25001 1.77557 -23.075
      vertex -2.49999 4.67557 -23.075
      vertex -1.60001 3.77558 -23.075
    endloop
  endfacet
  facet normal 0 0 -1
    outer loop
      vertex -3.14999 0.875578 -23.075
      vertex -2.49999 4.67557 -23.075
      vertex -2.25001 1.77557 -23.075
    endloop
  endfacet
  facet normal 0 0 -1
    outer loop
      vertex -6.29999 5.87558 -23.075
      vertex -2.49999 4.67557 -23.075
      vertex -3.14999 0.875578 -23.075
    endloop
  endfacet
  facet normal 0 0 -1
    outer loop
      vertex -6.29999 -5.87558 -23.075
      vertex -3.15 -6.77557 -23.075
      vertex -5.40001 -6.77557 -23.075
    endloop
  endfacet
  facet normal 0 0 -1
    outer loop
      vertex -3.15 -6.77557 -23.075
      vertex -6.29999 -5.87558 -23.075
      vertex -3.14999 0.875578 -23.075
    endloop
  endfacet
  facet normal 0 0 -1
    outer loop
      vertex -6.29999 5.87558 -23.075
      vertex -3.14999 0.875578 -23.075
      vertex -6.29999 -5.87558 -23.075
    endloop
  endfacet
  facet normal 0 -0 -1
    outer loop
      vertex -5.40001 6.77557 -23.075
      vertex -2.49999 4.67557 -23.075
      vertex -6.29999 5.87558 -23.075
    endloop
  endfacet
  facet normal 0 0 -1
    outer loop
      vertex -2.49999 4.67557 -23.075
      vertex -5.40001 6.77557 -23.075
      vertex -2.5 6.77557 -23.075
    endloop
  endfacet
  facet normal 0 0 1
    outer loop
      vertex 2.49999 4.67557 23.075
      vertex 6.29999 5.87558 23.075
      vertex 5.40001 6.77557 23.075
    endloop
  endfacet
  facet normal 0 0 1
    outer loop
      vertex 6.29999 5.87558 23.075
      vertex 3.14999 0.875578 23.075
      vertex 6.29999 -5.87558 23.075
    endloop
  endfacet
  facet normal 0 -0 1
    outer loop
      vertex 3.15 -6.77557 23.075
      vertex 6.29999 -5.87558 23.075
      vertex 3.14999 0.875578 23.075
    endloop
  endfacet
  facet normal 0 0 1
    outer loop
      vertex 6.29999 -5.87558 23.075
      vertex 3.15 -6.77557 23.075
      vertex 5.40001 -6.77557 23.075
    endloop
  endfacet
  facet normal 0 0 1
    outer loop
      vertex 2.49999 4.67557 23.075
      vertex 5.40001 6.77557 23.075
      vertex 2.5 6.77557 23.075
    endloop
  endfacet
  facet normal 0 0 1
    outer loop
      vertex 6.29999 5.87558 23.075
      vertex 2.49999 4.67557 23.075
      vertex 3.14999 0.875578 23.075
    endloop
  endfacet
  facet normal 0 0 1
    outer loop
      vertex 2.49999 4.67557 23.075
      vertex 2.25001 1.77557 23.075
      vertex 3.14999 0.875578 23.075
    endloop
  endfacet
  facet normal -0 0 1
    outer loop
      vertex 1.60001 3.77558 23.075
      vertex 2.25001 1.77557 23.075
      vertex 2.49999 4.67557 23.075
    endloop
  endfacet
  facet normal -0 0 1
    outer loop
      vertex -1.60001 3.77558 23.075
      vertex 2.25001 1.77557 23.075
      vertex 1.60001 3.77558 23.075
    endloop
  endfacet
  facet normal 0 0 1
    outer loop
      vertex -1.60001 3.77558 23.075
      vertex -2.25001 1.77557 23.075
      vertex 2.25001 1.77557 23.075
    endloop
  endfacet
  facet normal 0 0 1
    outer loop
      vertex -2.49999 4.67557 23.075
      vertex -2.25001 1.77557 23.075
      vertex -1.60001 3.77558 23.075
    endloop
  endfacet
  facet normal 0 0 1
    outer loop
      vertex -2.49999 4.67557 23.075
      vertex -3.14999 0.875578 23.075
      vertex -2.25001 1.77557 23.075
    endloop
  endfacet
  facet normal -0 0 1
    outer loop
      vertex -5.40001 6.77557 23.075
      vertex -2.49999 4.67557 23.075
      vertex -2.5 6.77557 23.075
    endloop
  endfacet
  facet normal 0 0 1
    outer loop
      vertex -2.49999 4.67557 23.075
      vertex -5.40001 6.77557 23.075
      vertex -6.29999 5.87558 23.075
    endloop
  endfacet
  facet normal 0 0 1
    outer loop
      vertex -2.49999 4.67557 23.075
      vertex -6.29999 5.87558 23.075
      vertex -3.14999 0.875578 23.075
    endloop
  endfacet
  facet normal 0 0 1
    outer loop
      vertex -6.29999 -5.87558 23.075
      vertex -3.14999 0.875578 23.075
      vertex -6.29999 5.87558 23.075
    endloop
  endfacet
  facet normal 0 0 1
    outer loop
      vertex -3.14999 0.875578 23.075
      vertex -6.29999 -5.87558 23.075
      vertex -3.15 -6.77557 23.075
    endloop
  endfacet
  facet normal 0 0 1
    outer loop
      vertex -3.15 -6.77557 23.075
      vertex -6.29999 -5.87558 23.075
      vertex -5.40001 -6.77557 23.075
    endloop
  endfacet
endsolid OpenSCAD_Model
