solid OpenSCAD_Model
  facet normal 1 -0 0
    outer loop
      vertex 83.2518 -69.73 0.799999
      vertex 83.2518 69.73 -0.799999
      vertex 83.2518 69.73 0.799999
    endloop
  endfacet
  facet normal 1 0 0
    outer loop
      vertex 83.2518 69.73 -0.799999
      vertex 83.2518 -69.73 0.799999
      vertex 83.2518 -69.73 -0.799999
    endloop
  endfacet
  facet normal -0 0 1
    outer loop
      vertex -83.2518 69.73 0.799999
      vertex 83.2518 -69.73 0.799999
      vertex 83.2518 69.73 0.799999
    endloop
  endfacet
  facet normal 0 0 1
    outer loop
      vertex 83.2518 -69.73 0.799999
      vertex -83.2518 69.73 0.799999
      vertex -83.2518 -69.73 0.799999
    endloop
  endfacet
  facet normal 0 0 -1
    outer loop
      vertex -83.2518 -69.73 -0.799999
      vertex 83.2518 69.73 -0.799999
      vertex 83.2518 -69.73 -0.799999
    endloop
  endfacet
  facet normal -0 0 -1
    outer loop
      vertex 83.2518 69.73 -0.799999
      vertex -83.2518 -69.73 -0.799999
      vertex -83.2518 69.73 -0.799999
    endloop
  endfacet
  facet normal -1 0 0
    outer loop
      vertex -83.2518 -69.73 -0.799999
      vertex -83.2518 69.73 0.799999
      vertex -83.2518 69.73 -0.799999
    endloop
  endfacet
  facet normal -1 -0 0
    outer loop
      vertex -83.2518 69.73 0.799999
      vertex -83.2518 -69.73 -0.799999
      vertex -83.2518 -69.73 0.799999
    endloop
  endfacet
  facet normal 0 1 -0
    outer loop
      vertex 83.2518 69.73 -0.799999
      vertex -83.2518 69.73 0.799999
      vertex 83.2518 69.73 0.799999
    endloop
  endfacet
  facet normal 0 1 0
    outer loop
      vertex -83.2518 69.73 0.799999
      vertex 83.2518 69.73 -0.799999
      vertex -83.2518 69.73 -0.799999
    endloop
  endfacet
  facet normal 0 -1 0
    outer loop
      vertex -83.2518 -69.73 -0.799999
      vertex 83.2518 -69.73 0.799999
      vertex -83.2518 -69.73 0.799999
    endloop
  endfacet
  facet normal 0 -1 -0
    outer loop
      vertex 83.2518 -69.73 0.799999
      vertex -83.2518 -69.73 -0.799999
      vertex 83.2518 -69.73 -0.799999
    endloop
  endfacet
endsolid OpenSCAD_Model
